<svg xmlns="http://www.w3.org/2000/svg" width="649" height="406" viewBox="0 0 649 406"><rect width="100%" height="100%" fill="#EEE"/><path fill="#31343C" d="m169.525 171.91-18.44 22.58-2.15 2.66q1.8-.9 3.89-1.39 2.08-.5 4.49-.5 3.53 0 6.86 1.16t5.87 3.51q2.54 2.34 4.09 5.82 1.54 3.49 1.54 8.13 0 4.34-1.59 8.15-1.59 3.8-4.47 6.64t-6.94 4.47q-4.07 1.64-8.97 1.64-4.99 0-8.94-1.59-3.96-1.59-6.75-4.45-2.8-2.86-4.28-6.88-1.49-4.02-1.49-8.93 0-4.38 1.79-9 1.78-4.63 5.52-9.62l14.84-19.9q.77-1.04 2.26-1.77 1.48-.73 3.41-.73zm-16.03 54.18q2.53 0 4.66-.86t3.66-2.41q1.52-1.54 2.38-3.63t.86-4.54q0-2.66-.81-4.79-.82-2.13-2.33-3.61-1.5-1.49-3.61-2.26t-4.64-.77q-2.54 0-4.6.86-2.07.86-3.53 2.38-1.46 1.53-2.28 3.61-.82 2.09-.82 4.5 0 2.58.71 4.71.71 2.12 2.11 3.63 1.4 1.5 3.46 2.34 2.07.84 4.78.84m36.72-15.44h18.92v-20.33q0-2.89.38-6.37zm28.16 0h7.83v6.15q0 .86-.56 1.49-.56.62-1.59.62h-5.68v15.18h-9.24v-15.18h-26.23q-1.08 0-1.89-.67-.82-.66-1.04-1.65l-1.11-5.38 29.45-39.34h10.06zm24.21-20.08q0 5.21 2.69 7.94t7.63 2.73q2.58 0 4.6-.82t3.4-2.24q1.38-1.41 2.09-3.35.7-1.93.7-4.17 0-2.54-.77-4.54t-2.19-3.37q-1.42-1.38-3.38-2.11-1.95-.73-4.28-.73-2.4 0-4.34.8-1.93.79-3.31 2.21t-2.11 3.38q-.73 1.95-.73 4.27m-5.2 43.52 19.31-24.12q.73-.91 1.37-1.77.65-.86 1.25-1.72-2.15 1.38-4.73 2.09t-5.42.71q-3.22 0-6.32-1.12t-5.5-3.37q-2.41-2.26-3.9-5.59-1.48-3.34-1.48-7.81 0-4.17 1.55-7.83 1.55-3.65 4.34-6.4 2.8-2.75 6.71-4.35 3.91-1.59 8.64-1.59 4.78 0 8.58 1.51 3.81 1.5 6.49 4.21 2.69 2.71 4.13 6.5 1.44 3.78 1.44 8.29 0 2.89-.49 5.47-.5 2.58-1.4 4.96-.9 2.39-2.19 4.67t-2.88 4.51l-14.24 20.3q-.73 1.03-2.19 1.74t-3.31.71zm107.03-14.23-5.64 5.54-14.57-14.57-14.71 14.66-5.63-5.55 14.7-14.75-14.02-14.01 5.59-5.59 14.02 14.01 13.93-13.93 5.68 5.59-13.97 13.98zm37.23-9.21h18.92v-20.33q0-2.89.39-6.37zm28.17 0h7.83v6.15q0 .86-.56 1.49-.56.62-1.59.62h-5.68v15.18h-9.25v-15.18h-26.23q-1.07 0-1.89-.67-.82-.66-1.03-1.65l-1.12-5.38 29.46-39.34h10.06zm57.75-7.65q0 8.13-1.74 14.13-1.74 5.99-4.82 9.91-3.07 3.91-7.27 5.82-4.19 1.92-9.05 1.92t-9.01-1.92q-4.15-1.91-7.2-5.82-3.05-3.92-4.77-9.91-1.72-6-1.72-14.13 0-8.17 1.72-14.15 1.72-5.97 4.77-9.89 3.05-3.91 7.2-5.82 4.15-1.92 9.01-1.92t9.05 1.92q4.2 1.91 7.27 5.82 3.08 3.92 4.82 9.89 1.74 5.98 1.74 14.15m-10.97 0q0-6.75-.99-11.18t-2.64-7.05q-1.66-2.62-3.81-3.68-2.15-1.05-4.47-1.05-2.28 0-4.41 1.05-2.12 1.06-3.76 3.68-1.63 2.62-2.6 7.05t-.97 11.18.97 11.18 2.6 7.05q1.64 2.63 3.76 3.68 2.13 1.05 4.41 1.05 2.32 0 4.47-1.05t3.81-3.68q1.65-2.62 2.64-7.05t.99-11.18m54.01-31.09-18.45 22.58-2.15 2.66q1.81-.9 3.9-1.39 2.08-.5 4.49-.5 3.52 0 6.86 1.16 3.33 1.16 5.87 3.51 2.53 2.34 4.08 5.82 1.55 3.49 1.55 8.13 0 4.34-1.59 8.15-1.59 3.8-4.47 6.64t-6.95 4.47q-4.06 1.64-8.96 1.64-4.99 0-8.95-1.59-3.95-1.59-6.75-4.45-2.79-2.86-4.28-6.88-1.48-4.02-1.48-8.93 0-4.38 1.78-9 1.79-4.63 5.53-9.62l14.83-19.9q.78-1.04 2.26-1.77 1.49-.73 3.42-.73zm-16.04 54.18q2.54 0 4.67-.86t3.65-2.41q1.53-1.54 2.39-3.63t.86-4.54q0-2.66-.82-4.79t-2.32-3.61q-1.5-1.49-3.61-2.26t-4.65-.77q-2.53 0-4.6.86-2.06.86-3.52 2.38-1.47 1.53-2.28 3.61-.82 2.09-.82 4.5 0 2.58.71 4.71.71 2.12 2.11 3.63 1.39 1.5 3.46 2.34 2.06.84 4.77.84"/></svg>